#!OML:ASF I:\Actors\actors\Patient Classification 1\Patient 1\Session 1\Subject1.ASF
:FULLY-SPECIFIED
:DEGREES
1204
root -0.268642 17.6277 7.64991 6.91233 5.70217 -10.7423
lowerback 5.24664 1.9313 5.05403
upperback 1.74473 2.86855 2.59048
thorax -1.0261 1.43452 -0.334095
lowerneck 0.178826 -2.17552 -1.10159
upperneck 6.80341 -3.39877 8.74968
head 2.34247 -1.50999 2.97589
rclavicle -4.07509e-015 3.97569e-015
rhumerus 31.4832 46.8346 -62.7123
rradius 140.623
rwrist -36.1291
rhand -19.1917 -70.6866
rfingers 7.12502
rthumb 7.12009 -1339.45
lclavicle -4.07509e-015 3.97569e-015
lhumerus 15.1716 -45.4185 78.5669
lradius 141.982
lwrist 48.0798
lhand -60.4207 -30.305
lfingers 7.12502
lthumb -32.5523 356.789
rfemur -8.90635 11.888 27.4621
rtibia 10.7229
rfoot -14.611 -19.4799
rtoes 1.98973
lfemur -5.33965 -33.3111 -1.7344
ltibia 0.340617
lfoot -7.9465 38.3775
ltoes -7.13172
1205
root -0.269391 17.6271 7.64605 6.91636 5.67919 -10.7408
lowerback 5.26499 1.93296 5.06373
upperback 1.75271 2.87147 2.55338
thorax -1.02557 1.43612 -0.378251
lowerneck 0.0671897 -2.19337 -1.11111
upperneck 6.87625 -3.43046 8.75795
head 2.38941 -1.52123 2.97994
rclavicle 4.97956e-014 4.25399e-014
rhumerus 31.5806 46.8821 -62.6695
rradius 140.598
rwrist -35.9637
rhand -19.102 -70.0388
rfingers 7.12502
rthumb 7.20673 -1340.1
lclavicle 4.97956e-014 4.25399e-014
lhumerus 15.201 -45.4658 78.5428
lradius 141.966
lwrist 47.9356
lhand -60.6138 -30.1534
lfingers 7.12502
lthumb -32.736 356.902
rfemur -8.92942 11.7703 27.448
rtibia 10.7078
rfoot -14.5616 -19.3778
rtoes 1.8832
lfemur -5.36483 -33.2332 -1.73168
ltibia 0.370477
lfoot -7.90537 38.3083
ltoes -7.1515
1206
root -0.271394 17.6278 7.64262 6.92244 5.66206 -10.7412
lowerback 5.30935 1.93256 5.04283
upperback 1.75397 2.8728 2.54203
thorax -1.04943 1.43628 -0.380136
lowerneck -0.0480275 -2.19083 -1.09965
upperneck 6.98525 -3.43628 8.74122
head 2.44639 -1.51856 2.9724
rclavicle 3.97569e-016 2.54444e-014
rhumerus 31.6525 46.8912 -62.6155
rradius 140.583
rwrist -35.9032
rhand -19.0304 -69.7612
rfingers 7.12502
rthumb 7.27579 -1340.38
lclavicle 3.97569e-016 2.54444e-014
lhumerus 15.2113 -45.464 78.513
lradius 141.922
lwrist 47.9061
lhand -60.6897 -30.4703
lfingers 7.12502
lthumb -32.8082 356.57
rfemur -8.94787 11.7565 27.4441
rtibia 10.705
rfoot -14.5732 -19.3319
rtoes 1.96525
lfemur -5.39916 -33.1936 -1.70914
ltibia 0.394199
lfoot -7.83086 38.2816
ltoes -7.32702
1207
root -0.273154 17.6291 7.63955 6.9328 5.638 -10.792
lowerback 5.33995 1.93183 5.04931
upperback 1.75266 2.87476 2.56125
thorax -1.06843 1.43682 -0.365359
lowerneck -0.169228 -2.17207 -1.08407
upperneck 7.16271 -3.42475 8.71308
head 2.52607 -1.50542 2.96134
rclavicle 1.65985e-014 -1.59028e-015
rhumerus 31.7523 46.8775 -62.5113
rradius 140.592
rwrist -35.9386
rhand -19.0237 -69.835
rfingers 7.12502
rthumb 7.2823 -1340.31
lclavicle 1.65985e-014 -1.59028e-015
lhumerus 15.1778 -45.4451 78.4793
lradius 141.897
lwrist 47.8616
lhand -60.7247 -30.6345
lfingers 7.12502
lthumb -32.8415 356.399
rfemur -8.96251 11.8152 27.5064
rtibia 10.6837
rfoot -14.5397 -19.3492
rtoes 1.95853
lfemur -5.41561 -33.1869 -1.62414
ltibia 0.378167
lfoot -7.80832 38.3294
ltoes -7.41683
1208
root -0.274097 17.63 7.63656 6.92571 5.63497 -10.8631
lowerback 5.39359 1.92806 5.09428
upperback 1.75232 2.87642 2.58688
thorax -1.09768 1.43702 -0.366197
lowerneck -0.37222 -2.17329 -1.13988
upperneck 7.3967 -3.44549 8.70961
head 2.64452 -1.50625 2.97171
rclavicle -1.65985e-014 -2.26615e-014
rhumerus 31.8552 46.8841 -62.3823
rradius 140.609
rwrist -35.964
rhand -19.0447 -69.9013
rfingers 7.12502
rthumb 7.26204 -1340.24
lclavicle -1.65985e-014 -2.26615e-014
lhumerus 15.1468 -45.4894 78.4019
lradius 141.919
lwrist 47.8224
lhand -60.8184 -30.8632
lfingers 7.12502
lthumb -32.9307 356.152
rfemur -8.94808 11.8572 27.5966
rtibia 10.6386
rfoot -14.4793 -19.4025
rtoes 1.81347
lfemur -5.42172 -33.1887 -1.52309
ltibia 0.359826
lfoot -7.79394 38.3563
ltoes -7.4442
1209
root -0.274579 17.6305 7.63509 6.92868 5.64556 -10.8706
lowerback 5.42005 1.92912 5.09654
upperback 1.75616 2.87978 2.59292
thorax -1.10852 1.43851 -0.362387
lowerneck -0.538616 -2.18804 -1.2128
upperneck 7.5574 -3.47931 8.73013
head 2.73399 -1.51635 2.99271
rclavicle 7.55382e-015 -3.93594e-014
rhumerus 31.9255 46.9084 -62.2563
rradius 140.621
rwrist -36.0096
rhand -19.1507 -69.9273
rfingers 7.12502
rthumb 7.15972 -1340.21
lclavicle 7.55382e-015 -3.93594e-014
lhumerus 15.1812 -45.5685 78.2733
lradius 141.935
lwrist 47.7681
lhand -60.9517 -30.9485
lfingers 7.12502
lthumb -33.0574 356.04
rfemur -8.93876 11.8613 27.6057
rtibia 10.6019
rfoot -14.4615 -19.4237
rtoes 1.65572
lfemur -5.44147 -33.2159 -1.49841
ltibia 0.359569
lfoot -7.7679 38.3521
ltoes -7.45839
1210
root -0.27439 17.6311 7.63422 6.95672 5.64032 -10.8422
lowerback 5.39833 1.92745 5.05276
upperback 1.76415 2.87328 2.59259
thorax -1.09065 1.43572 -0.337056
lowerneck -0.599867 -2.19046 -1.24781
upperneck 7.61832 -3.48965 8.76737
head 2.76866 -1.51841 3.01239
rclavicle 1.2921e-015 -1.98785e-014
rhumerus 32.0321 46.9698 -62.1062
rradius 140.625
rwrist -36.0866
rhand -19.2913 -69.9437
rfingers 7.12502
rthumb 7.02394 -1340.19
lclavicle 1.2921e-015 -1.98785e-014
lhumerus 15.235 -45.5992 78.1494
lradius 141.92
lwrist 47.6457
lhand -61.0288 -31.1641
lfingers 7.12502
lthumb -33.1307 355.808
rfemur -8.96294 11.8199 27.5577
rtibia 10.579
rfoot -14.4549 -19.3655
rtoes 1.6445
lfemur -5.48434 -33.217 -1.51387
ltibia 0.376847
lfoot -7.76244 38.3317
ltoes -7.33546
1211
root -0.273928 17.6316 7.63267 6.95503 5.62924 -10.8367
lowerback 5.4285 1.92521 5.0208
upperback 1.77733 2.87046 2.61221
thorax -1.09663 1.4343 -0.299928
lowerneck -0.632219 -2.18704 -1.29347
upperneck 7.61527 -3.48621 8.79822
head 2.77559 -1.51653 3.03159
rclavicle -4.63168e-014 -1.82882e-014
rhumerus 32.1138 47.0419 -61.9925
rradius 140.631
rwrist -36.1313
rhand -19.3433 -69.9939
rfingers 7.12502
rthumb 6.97374 -1340.14
lclavicle -4.63168e-014 -1.82882e-014
lhumerus 15.2567 -45.6278 78.0995
lradius 141.914
lwrist 47.4668
lhand -60.9922 -31.6769
lfingers 7.12502
lthumb -33.0959 355.303
rfemur -8.96802 11.7717 27.5388
rtibia 10.5795
rfoot -14.4832 -19.2793
rtoes 1.90123
lfemur -5.5038 -33.1872 -1.52526
ltibia 0.417298
lfoot -7.77944 38.3079
ltoes -7.24753
1212
root -0.273867 17.6313 7.6306 6.92032 5.61318 -10.8598
lowerback 5.50702 1.92324 5.00122
upperback 1.79216 2.87248 2.65487
thorax -1.12824 1.43477 -0.248134
lowerneck -0.613345 -2.16072 -1.35066
upperneck 7.56131 -3.44514 8.80171
head 2.75294 -1.49964 3.04407
rclavicle -1.91827e-014 -6.75868e-015
rhumerus 32.1835 47.1257 -61.9173
rradius 140.646
rwrist -36.1656
rhand -19.3572 -70.0728
rfingers 7.12502
rthumb 6.96035 -1340.06
lclavicle -1.91827e-014 -6.75868e-015
lhumerus 15.2122 -45.6755 78.1094
lradius 141.94
lwrist 47.243
lhand -60.9314 -32.4039
lfingers 7.12502
lthumb -33.038 354.588
rfemur -8.94882 11.7806 27.5679
rtibia 10.597
rfoot -14.5205 -19.2561
rtoes 2.111
lfemur -5.48527 -33.155 -1.51955
ltibia 0.456447
lfoot -7.87815 38.2956
ltoes -7.14904
1213
root -0.274242 17.6312 7.62876 6.90104 5.57633 -10.8994
lowerback 5.52844 1.92506 4.98769
upperback 1.82607 2.87457 2.68955
thorax -1.10759 1.43658 -0.205159
lowerneck -0.579145 -2.11748 -1.26764
upperneck 7.49373 -3.38008 8.74663
head 2.71603 -1.46911 3.01048
rclavicle 1.92821e-014 1.94809e-014
rhumerus 32.3452 47.1975 -61.7893
rradius 140.686
rwrist -36.19
rhand -19.3992 -70.1227
rfingers 7.12502
rthumb 6.91979 -1340.01
lclavicle 1.92821e-014 1.94809e-014
lhumerus 15.1991 -45.6974 78.0572
lradius 141.975
lwrist 47.0584
lhand -60.8863 -33.1942
lfingers 7.12502
lthumb -32.9952 353.807
rfemur -8.94696 11.807 27.6173
rtibia 10.6108
rfoot -14.4998 -19.2527
rtoes 2.04684
lfemur -5.45542 -33.1564 -1.48062
ltibia 0.448766
lfoot -7.93559 38.3265
ltoes -7.07834
